<?xml version="1.0" encoding="UTF-8"?>
<svg id="Layer_1" data-name="Layer 1" xmlns="http://www.w3.org/2000/svg" viewBox="0 0 763 768">
  <defs>
    <style>
      .cls-1 {
        font-family: MyriadPro-Regular, 'Myriad Pro';
        font-size: 225.31px;
        opacity: .11;
        stroke: #000;
      }

      .cls-1, .cls-2 {
        stroke-miterlimit: 10;
      }

      .cls-3 {
        fill: #e6e6e6;
      }

      .cls-4 {
        fill: #fff;
      }

      .cls-5 {
        fill: #b3b3b3;
      }

      .cls-6 {
        fill: #ccc;
      }

      .cls-7 {
        fill: gray;
      }

      .cls-2 {
        fill: none;
        stroke: #fff;
        stroke-width: 20px;
      }

      .cls-8 {
        letter-spacing: 0em;
      }

      .cls-9 {
        letter-spacing: 0em;
      }
    </style>
  </defs>
  <rect class="cls-3" x="0" y="3" width="763" height="763"/>
  <g>
    <path class="cls-4" d="m381,711.5c-87.48,0-169.72-34.07-231.58-95.92-61.86-61.86-95.92-144.1-95.92-231.58s34.07-169.72,95.92-231.58c61.86-61.86,144.1-95.92,231.58-95.92s169.72,34.07,231.58,95.92c61.86,61.86,95.92,144.1,95.92,231.58s-34.07,169.72-95.92,231.58c-61.86,61.86-144.1,95.92-231.58,95.92Z"/>
    <path class="cls-4" d="m381,57c44.15,0,86.97,8.65,127.28,25.7,38.94,16.47,73.91,40.05,103.94,70.08,30.03,30.03,53.61,65,70.08,103.94,17.05,40.31,25.7,83.14,25.7,127.28s-8.65,86.97-25.7,127.28c-16.47,38.94-40.05,73.91-70.08,103.94-30.03,30.03-65,53.61-103.94,70.08-40.31,17.05-83.14,25.7-127.28,25.7s-86.97-8.65-127.28-25.7c-38.94-16.47-73.91-40.05-103.94-70.08-30.03-30.03-53.61-65-70.08-103.94-17.05-40.31-25.7-83.14-25.7-127.28s8.65-86.97,25.7-127.28c16.47-38.94,40.05-73.91,70.08-103.94,30.03-30.03,65-53.61,103.94-70.08,40.31-17.05,83.14-25.7,127.28-25.7m0-1c-181.15,0-328,146.85-328,328s146.85,328,328,328,328-146.85,328-328S562.15,56,381,56h0Z"/>
  </g>
  <g>
    <g>
      <path class="cls-7" d="m367.12,669.59c-11.86,0-23.03-5.76-29.88-15.41L105.14,327.47c-4.46-6.28-6.82-13.82-6.77-21.48,1.05,2.48,2.38,4.84,3.95,7.06l232.1,326.71c7.04,9.91,18.52,15.83,30.7,15.83,7.83,0,15.35-2.4,21.76-6.95l219.92-156.23c8.51-6.05,14.07-15.26,15.48-25.54,4.12,14.72-1.46,30.78-14.06,39.72l-219.92,156.23c-6.23,4.43-13.56,6.77-21.18,6.77Z"/>
      <path class="cls-4" d="m98.93,308.39c.86,1.71,1.86,3.37,2.98,4.95l232.1,326.71c7.14,10.04,18.76,16.04,31.11,16.04,7.93,0,15.56-2.44,22.05-7.05l219.92-156.23c7.96-5.65,13.36-14.03,15.27-23.47,2.89,13.86-2.67,28.49-14.43,36.84l-219.92,156.23c-6.15,4.37-13.37,6.68-20.89,6.68-11.7,0-22.72-5.68-29.48-15.2L105.55,327.18c-3.93-5.53-6.21-12.07-6.61-18.79m-.96-4.82c-.61,8.31,1.56,16.87,6.76,24.19l232.1,326.71c7.24,10.19,18.68,15.62,30.29,15.62,7.44,0,14.95-2.23,21.47-6.86l219.92-156.23c13.81-9.81,18.88-27.35,13.52-42.57-.78,10.66-6.13,20.9-15.52,27.57l-219.92,156.23c-6.52,4.63-14.03,6.86-21.47,6.86-11.61,0-23.06-5.43-30.29-15.62L102.73,312.76c-2.06-2.9-3.64-5.99-4.76-9.19h0Z"/>
    </g>
    <g>
      <path class="cls-4" d="m296.83,146.37l36.87-26.19c3.31-2.35,6.92-4.11,10.73-5.24l66.74,93.95-46.47,33.01-67.87-95.53Z"/>
      <path class="cls-4" d="m344.23,115.52l66.25,93.25-45.66,32.43-67.29-94.72,36.46-25.9c3.16-2.24,6.61-3.95,10.24-5.06m.4-1.16c-3.92,1.12-7.71,2.92-11.22,5.41l-37.28,26.48,68.45,96.35,47.29-33.59-67.24-94.65h0Z"/>
    </g>
    <g>
      <path class="cls-3" d="m365.12,654.59c-11.86,0-23.03-5.76-29.88-15.41L103.14,312.47c-1.99-2.8-3.57-5.85-4.7-9.07-5.39-15.32.09-32.59,13.34-42l176.48-125.37,76.2,107.26,48.11-34.17-67.53-95.06-8.41-11.84c5.02-2.5,10.63-3.82,16.26-3.82,11.85,0,23.02,5.76,29.88,15.41l232.1,326.71c4.92,6.93,7.29,15.4,6.67,23.86-.8,10.94-6.38,20.86-15.31,27.2l-219.92,156.23c-6.23,4.43-13.56,6.77-21.18,6.77Z"/>
      <path class="cls-4" d="m352.89,98.91c11.69,0,22.71,5.68,29.47,15.2l232.1,326.71c4.85,6.83,7.19,15.19,6.58,23.54-.79,10.79-6.29,20.57-15.1,26.83l-219.92,156.23c-6.15,4.37-13.37,6.68-20.89,6.68-11.7,0-22.72-5.68-29.48-15.2L103.55,312.18c-1.96-2.77-3.52-5.77-4.63-8.94-5.32-15.11.09-32.14,13.16-41.42l176.07-125.08,7.17,10.09,68.45,96.35.58.82.82-.58,47.29-33.59.82-.58-.58-.82-67.24-94.65-8.07-11.36c4.82-2.3,10.16-3.51,15.51-3.51h0m0-1c-5.79,0-11.63,1.35-17,4.14l8.75,12.31,67.24,94.65-47.29,33.59-68.45-96.35-7.75-10.91-176.89,125.66c-13.81,9.81-18.88,27.35-13.52,42.57,1.12,3.2,2.7,6.29,4.76,9.19l232.1,326.71c7.24,10.19,18.68,15.62,30.29,15.62,7.44,0,14.95-2.23,21.47-6.86l219.92-156.23c9.39-6.67,14.74-16.91,15.52-27.57.61-8.31-1.56-16.87-6.76-24.19L383.17,113.53c-7.23-10.18-18.67-15.62-30.29-15.62h0Z"/>
    </g>
    <g>
      <path class="cls-4" d="m289.08,135.46l42.62-30.28c1.27-.91,2.63-1.74,4.03-2.48l8.5,11.95,66.95,94.24-46.47,33.01-75.62-106.44Z"/>
      <path class="cls-4" d="m335.57,103.35l8.24,11.59,66.66,93.83-45.66,32.43-67.87-95.53-7.17-10.09,42.21-29.99c1.14-.81,2.34-1.56,3.58-2.24m.31-1.3c-1.53.79-3.02,1.69-4.47,2.72l-43.03,30.57,7.75,10.91,68.45,96.35,47.29-33.59-67.24-94.65-8.75-12.31h0Z"/>
    </g>
    <g>
      <rect class="cls-4" x="321.5" y="106.5" width="57" height="131" transform="translate(-34.95 234.45) rotate(-35.39)"/>
      <path class="cls-4" d="m335.18,102.8l8.63,12.14,66.66,93.83-45.66,32.43-67.87-95.53-7.42-10.45,45.66-32.43m.24-1.4l-47.29,33.59.25.35,7.75,10.91,68.45,96.35,47.29-33.59-67.24-94.65-8.75-12.31-.46-.65h0Z"/>
    </g>
    <g>
      <line class="cls-2" x1="339.5" y1="102.5" x2="288.5" y2="135.5"/>
      <line class="cls-3" x1="339.5" y1="102.5" x2="288.5" y2="135.5"/>
    </g>
  </g>
  <g>
    <g>
      <path class="cls-6" d="m607.38,531.96c-2.27,0-4.55-.29-6.77-.87l-198.65-51.58c-10.51-2.73-18.31-11.44-19.86-22.19-.51-3.53-.31-7.09.6-10.59l67.92-261.57c3.08-11.85,13.77-20.13,26-20.13,2.27,0,4.55.29,6.77.87l198.65,51.58c14.35,3.73,22.99,18.43,19.26,32.77l-67.92,261.56c-3.08,11.85-13.77,20.13-26,20.13h0Zm-112.83-334.43c-11.33,0-21.24,7.67-24.1,18.65l-48.55,186.98c-1.1,4.23-1.07,8.68.09,12.86,2.36,8.57,9.17,15.28,17.76,17.52l149.23,38.75c2.06.53,4.17.8,6.28.8,11.33,0,21.24-7.67,24.1-18.65l48.55-186.98c1.67-6.44.74-13.14-2.63-18.88-3.37-5.74-8.78-9.82-15.21-11.49l-149.23-38.75c-2.06-.53-4.17-.81-6.28-.81Z"/>
      <path class="cls-4" d="m476.62,165.54c2.23,0,4.47.29,6.65.85l198.65,51.58c14.08,3.66,22.56,18.08,18.9,32.16l-67.92,261.57c-3.02,11.63-13.51,19.76-25.52,19.76-2.23,0-4.47-.29-6.65-.85l-198.65-51.58c-10.32-2.68-17.97-11.23-19.49-21.78-.5-3.46-.3-6.96.59-10.39l67.92-261.57c3.02-11.63,13.51-19.76,25.52-19.76m118.65,308.05c11.56,0,21.67-7.83,24.58-19.03l48.55-186.98c3.52-13.56-4.65-27.46-18.21-30.98l-149.23-38.75c-2.1-.55-4.25-.82-6.4-.82-11.56,0-21.67,7.83-24.58,19.03l-48.55,186.98c-1.12,4.32-1.09,8.85.09,13.11,2.41,8.75,9.35,15.59,18.12,17.87l149.23,38.75c2.1.55,4.25.82,6.4.82m-118.65-309.05c-12.17,0-23.28,8.18-26.48,20.5l-67.92,261.57c-.94,3.63-1.12,7.28-.61,10.78,1.53,10.58,9.22,19.74,20.23,22.6l198.65,51.58c2.31.6,4.62.89,6.9.89,12.17,0,23.28-8.18,26.48-20.5l67.92-261.57c3.8-14.63-4.98-29.58-19.62-33.38l-198.65-51.58c-2.31-.6-4.62-.89-6.9-.89h0Zm118.65,308.05c-2.03,0-4.09-.26-6.15-.79l-149.23-38.75c-8.76-2.27-15.16-9.02-17.4-17.17-1.1-3.99-1.2-8.31-.09-12.6l48.55-186.98c2.85-10.99,12.76-18.28,23.61-18.28,2.03,0,4.09.26,6.15.79l149.23,38.75c13.05,3.39,20.88,16.71,17.49,29.76l-48.55,186.98c-2.85,10.99-12.76,18.28-23.61,18.28h0Z"/>
    </g>
    <g>
      <path class="cls-4" d="m499.56,336.89l-76.81,78.01c-.89-3.76-.85-7.71.13-11.49l48.55-186.98c2.74-10.54,12.25-17.91,23.13-17.91,2.02,0,4.05.26,6.02.77l149.23,38.75c6.18,1.6,11.37,5.52,14.6,11.03,3.24,5.51,4.13,11.94,2.53,18.12l-33.23,127.96-16.81-65.02-92.41,97.03-24.94-90.28Z"/>
      <path class="cls-4" d="m494.56,199.03h0c1.98,0,3.96.25,5.9.76l149.23,38.75c12.49,3.24,20.02,16.05,16.77,28.54l-32.74,126.09-16.1-62.28-.45-1.74-1.24,1.3-91.18,95.74-24.48-88.6-.46-1.67-1.22,1.23-75.56,76.74c-.67-3.41-.56-6.95.32-10.35l48.55-186.98c2.68-10.32,11.99-17.53,22.64-17.53m0-1c-10.85,0-20.76,7.29-23.61,18.28l-48.55,186.98c-1.11,4.29-1.02,8.61.09,12.6l76.83-78.03,24.95,90.3,92.4-97.02,17.07,66.02,33.71-129.82c3.39-13.05-4.44-26.37-17.49-29.76l-149.23-38.75c-2.06-.53-4.12-.79-6.15-.79h0Z"/>
    </g>
    <g>
      <path class="cls-4" d="m499.56,336.89l-76.81,78.01c-.89-3.76-.85-7.71.13-11.49l48.55-186.98c2.74-10.54,12.25-17.91,23.13-17.91,2.02,0,4.05.26,6.02.77l149.23,38.75c6.18,1.6,11.37,5.52,14.6,11.03,3.24,5.51,4.13,11.94,2.53,18.12l-33.23,127.96-16.81-65.02-92.41,97.03-24.94-90.28Z"/>
      <path class="cls-4" d="m494.56,199.03h0c1.98,0,3.96.25,5.9.76l149.23,38.75c12.49,3.24,20.02,16.05,16.77,28.54l-32.74,126.09-16.1-62.28-.45-1.74-1.24,1.3-91.18,95.74-24.48-88.6-.46-1.67-1.22,1.23-75.56,76.74c-.67-3.41-.56-6.95.32-10.35l48.55-186.98c2.68-10.32,11.99-17.53,22.64-17.53m0-1c-10.85,0-20.76,7.29-23.61,18.28l-48.55,186.98c-1.11,4.29-1.02,8.61.09,12.6l76.83-78.03,24.95,90.3,92.4-97.02,17.07,66.02,33.71-129.82c3.39-13.05-4.44-26.37-17.49-29.76l-149.23-38.75c-2.06-.53-4.12-.79-6.15-.79h0Z"/>
    </g>
    <g>
      <path class="cls-5" d="m595.26,472.09c-2.02,0-4.05-.26-6.02-.77l-149.23-38.75c-8.16-2.12-14.63-8.44-16.97-16.54l76.02-77.2,24.95,90.32,92.39-97.01,16.81,65.02-14.81,57.03c-2.74,10.54-12.25,17.91-23.13,17.91Z"/>
      <path class="cls-4" d="m616.13,333.13l16.55,64.02-14.78,56.9c-2.68,10.32-11.99,17.53-22.64,17.53-1.98,0-3.96-.25-5.9-.76l-149.23-38.75c-7.89-2.05-14.18-8.12-16.53-15.91l75.2-76.37,24.48,88.63.47,1.7,1.22-1.28,91.16-95.72m.52-1.99l-92.4,97.02-24.95-90.3-76.83,78.03c2.24,8.15,8.64,14.89,17.4,17.17l149.23,38.75c2.06.53,4.12.79,6.15.79,10.85,0,20.76-7.29,23.61-18.28l14.84-57.15-17.07-66.02h0Z"/>
    </g>
  </g>
  <text class="cls-1" transform="translate(95.78 427.67) scale(.67 1)"><tspan x="0" y="0">No </tspan><tspan class="cls-8" x="319.71" y="0">I</tspan><tspan class="cls-9" x="375.82" y="0">mage</tspan></text>
</svg>